<svg xmlns="http://www.w3.org/2000/svg" width="381" height="115" fill="none" viewBox="0 0 381 115"><g opacity=".8"><g filter="url(#a)"><path fill="#66b599" d="M76.304 91.339s-5.467 2.349-7.378 2.855c-6.952 1.838-8.926.29-8.926.29l.954-6.668s3.873.097 7.488-1.11C70.239 86.104 75.526 84 75.526 84z"/></g><path fill="#66b599" d="M296.174 113.265s-3.558-4.77-4.496-6.51c-3.407-6.331-2.363-8.612-2.363-8.612l6.707-.626s.808 3.788 2.825 7.021c1.003 1.609 4.283 6.26 4.283 6.26z"/><path fill="#f29900" d="M114.962 114.103s-2.274.826-5.444-3.276c-2.188-2.832-5.356-3.296-5.356-3.296l4.117-4.597s3.049-.322 5.257 3.11c1.998 3.106 5.518 3.684 5.518 3.684z"/><g filter="url(#b)"><path fill="#f29900" d="M71.82 22.387s-.041 2.42-5.005 3.912c-3.428 1.03-4.994 3.824-4.994 3.824L59 24.633s.79-2.962 4.784-3.797C67.4 20.081 69.198 17 69.198 17z"/></g><path fill="#f29900" d="M351.03 86.712s-.411-1.23 1.831-2.87c1.546-1.132 1.839-2.823 1.839-2.823l2.404 2.27s.131 1.637-1.738 2.772c-1.692 1.027-2.05 2.904-2.05 2.904z" opacity=".6"/><path fill="#dbe2f9" d="m292.368 10.545-4.561.674s.159-2.187.065-4.273c-.12-2.646.649-4.821.649-4.821l4.717-.295s-1.202 2.527-.915 4.577c.342 2.45.045 4.138.045 4.138"/><path fill="#e36272" d="m266.625 32.01-5.01-2.457s-.208-2.433 1.401-5.72c1.527-3.114 3.663-4.612 3.663-4.612l5.01 2.456s-1.99 2.456-3.216 4.96c-.911 1.859-1.848 5.373-1.848 5.373"/><path fill="#f29900" d="M325.592 58.627a1.618 1.618 0 1 1-3.237-.002 1.618 1.618 0 0 1 3.237.002M52.856 110.116a1.083 1.083 0 1 1-2.166-.002 1.083 1.083 0 0 1 2.166.002" opacity=".6"/><path fill="#f29900" d="M51.624 63.483a1.618 1.618 0 1 1-3.237 0 1.618 1.618 0 0 1 3.237 0"/><path fill="#48a987" d="M25.624 71.483a1.618 1.618 0 1 1-3.237 0 1.618 1.618 0 0 1 3.237 0" opacity=".6"/><path fill="#f29900" d="M119.236 1.618A1.618 1.618 0 1 1 116 1.617a1.618 1.618 0 0 1 3.236 0"/><path fill="#66b599" d="M328.036 94.806a1.549 1.549 0 1 1-3.098-.001 1.549 1.549 0 0 1 3.098.001M132.096 23.548a1.549 1.549 0 1 1-3.098-.002 1.549 1.549 0 0 1 3.098.002"/><path fill="#dbe2f9" d="M96.817 27.908a.908.908 0 1 1-1.815 0 .908.908 0 0 1 1.815 0"/><path fill="#dbe2f9" d="M1.817 75.908a.908.908 0 1 1-1.816 0 .908.908 0 0 1 1.816 0" opacity=".6"/><g filter="url(#c)"><path fill="#e36272" d="M271.253 100.626a1.627 1.627 0 1 1-3.252.002 1.627 1.627 0 0 1 3.252-.002"/></g><path fill="#dbe2f9" d="M380.817 64.908a.908.908 0 1 1-1.816 0 .908.908 0 0 1 1.816 0" opacity=".6"/></g><defs><filter id="a" width="22.304" height="17.093" x="57" y="81" color-interpolation-filters="sRGB" filterUnits="userSpaceOnUse"><feFlood flood-opacity="0" result="BackgroundImageFix"/><feBlend in="SourceGraphic" in2="BackgroundImageFix" result="shape"/><feGaussianBlur result="effect1_foregroundBlur_13288_9783" stdDeviation="1.5"/></filter><filter id="b" width="18.82" height="19.123" x="56" y="14" color-interpolation-filters="sRGB" filterUnits="userSpaceOnUse"><feFlood flood-opacity="0" result="BackgroundImageFix"/><feBlend in="SourceGraphic" in2="BackgroundImageFix" result="shape"/><feGaussianBlur result="effect1_foregroundBlur_13288_9783" stdDeviation="1.5"/></filter><filter id="c" width="9.253" height="9.254" x="265" y="96" color-interpolation-filters="sRGB" filterUnits="userSpaceOnUse"><feFlood flood-opacity="0" result="BackgroundImageFix"/><feBlend in="SourceGraphic" in2="BackgroundImageFix" result="shape"/><feGaussianBlur result="effect1_foregroundBlur_13288_9783" stdDeviation="1.5"/></filter></defs></svg>