<svg xmlns="http://www.w3.org/2000/svg" width="24" height="29" fill="none" viewBox="0 0 24 29"><path fill="#fb3" stroke="#fba800" stroke-linecap="round" stroke-linejoin="round" stroke-width="2" d="M15.5923 3.01904C13.2802 2.19896 10.7602 2.17516 8.43311 2.95166L6.14502 3.71533C5.16969 4.04078 4.55977 4.822 4.53076 5.75049C4.49848 6.78446 4.48473 8.28197 4.5249 10.4165C4.60449 14.6402 6.34226 17.4402 8.15576 19.1938C9.06941 20.0773 10.0054 20.6974 10.7612 21.0923C11.1391 21.2897 11.4637 21.4271 11.7095 21.5122C11.8374 21.5565 11.9267 21.5792 11.981 21.5923C12.0363 21.5684 12.1139 21.5331 12.2124 21.479C12.464 21.3409 12.8011 21.1238 13.1987 20.8286C13.992 20.2397 14.9738 19.3783 15.9282 18.3179C17.8571 16.1748 19.5337 13.3741 19.5435 10.4604L19.4399 6.42627C19.4081 5.18461 18.6145 4.0905 17.4438 3.67529L15.5923 3.01904Z"/><mask id="mask0_13288_8334" width="9" height="24" x="12" y="0" maskUnits="userSpaceOnUse" style="mask-type:alpha"><path fill="#c4c4c4" stroke="#ea9400" d="M-.5.5H7.37339V23.5H-.5z" transform="matrix(-1 0 0 1 19.891 0)"/></mask><g mask="url(#mask0_13288_8334)"><path fill="#f69c00" stroke="#d68700" stroke-linecap="round" stroke-linejoin="round" stroke-width="2" d="M8.33887 3.1792C10.7214 2.26063 13.3498 2.19949 15.7725 3.00635L17.9053 3.71631C18.8807 4.04123 19.4903 4.8223 19.5195 5.75049C19.5519 6.78441 19.5656 8.28224 19.5254 10.4165C19.4457 14.6396 17.7049 17.44 15.8877 19.1938C14.9724 20.0772 14.0348 20.6964 13.2773 21.0913C12.8984 21.2889 12.5726 21.426 12.3262 21.5112C12.1691 21.5655 12.0704 21.5885 12.0225 21.5991C11.9598 21.5799 11.8661 21.5463 11.7412 21.4917C11.4875 21.3806 11.1501 21.2059 10.7549 20.9663C9.96539 20.4877 8.99022 19.7782 8.04492 18.8735C6.13393 17.0446 4.47461 14.5489 4.47461 11.6519V5.35498C4.47468 4.94158 4.7295 4.57108 5.11523 4.42236L8.33887 3.1792Z"/></g><path fill="url(#paint0_linear_13288_8334)" d="M15.9927 10.1788C15.9927 10.1824 15.9927 10.1857 15.9902 10.1892L15.1801 13.5761C15.1551 13.6954 15.0854 13.803 14.9829 13.8803C14.8804 13.9577 14.7515 14 14.6185 14H9.38291C9.24997 14 9.12119 13.9576 9.01877 13.8802C8.91634 13.8029 8.84667 13.6953 8.82174 13.5761L8.01159 10.1892C8.01159 10.1857 8.0098 10.1824 8.00909 10.1788C7.98692 10.0667 8.00557 9.951 8.0622 9.84945C8.11884 9.74791 8.21033 9.66608 8.32271 9.61647C8.43509 9.56686 8.56217 9.5522 8.68453 9.57473C8.8069 9.59726 8.91782 9.65574 9.00034 9.74123L10.2031 10.9245L11.4819 8.30653C11.4819 8.30544 11.4819 8.30436 11.4819 8.30327C11.5276 8.21274 11.6008 8.13606 11.6928 8.08231C11.7848 8.02856 11.8917 8 12.0009 8C12.1101 8 12.217 8.02856 12.309 8.08231C12.401 8.13606 12.4742 8.21274 12.5199 8.30327C12.5199 8.30436 12.5199 8.30544 12.5199 8.30653L13.7987 10.9245L15.0014 9.74123C15.0841 9.65637 15.1949 9.59847 15.317 9.57631C15.439 9.55415 15.5656 9.56894 15.6776 9.61845C15.7896 9.66795 15.8808 9.74946 15.9374 9.8506C15.994 9.95173 16.0129 10.067 15.9913 10.1788H15.9927Z"/><defs><linearGradient id="paint0_linear_13288_8334" x1="9.55556" x2="14.9171" y1="8.85714" y2="14.1949" gradientUnits="userSpaceOnUse"><stop stop-color="#fff"/><stop offset="1" stop-color="#fff"/></linearGradient></defs></svg>