<svg xmlns="http://www.w3.org/2000/svg" width="44" height="69" fill="none" viewBox="0 0 44 69"><path fill="#fb3" d="M25.5311 30.2673C25.6922 29.8319 26.3078 29.8319 26.4689 30.2673L27.2707 32.4339C27.3213 32.5708 27.4292 32.6787 27.5661 32.7293L29.7327 33.5311C30.1681 33.6922 30.1681 34.3078 29.7327 34.4689L27.5661 35.2707C27.4292 35.3213 27.3213 35.4292 27.2707 35.5661L26.4689 37.7327C26.3078 38.1681 25.6922 38.1681 25.5311 37.7327L24.7293 35.5661C24.6787 35.4292 24.5708 35.3213 24.4339 35.2707L22.2673 34.4689C21.8319 34.3078 21.8319 33.6922 22.2673 33.5311L24.4339 32.7293C24.5708 32.6787 24.6787 32.5708 24.7293 32.4339L25.5311 30.2673Z"/><path fill="#20df9e" d="M38.5311 1.26725C38.6922 0.831944 39.3078 0.831944 39.4689 1.26725L40.2707 3.43393C40.3213 3.57078 40.4292 3.67869 40.5661 3.72933L42.7327 4.53107C43.1681 4.69215 43.1681 5.30785 42.7327 5.46893L40.5661 6.27067C40.4292 6.32131 40.3213 6.42921 40.2707 6.56607L39.4689 8.73275C39.3078 9.16806 38.6922 9.16806 38.5311 8.73275L37.7293 6.56607C37.6787 6.42921 37.5708 6.32131 37.4339 6.27067L35.2673 5.46893C34.8319 5.30785 34.8319 4.69215 35.2673 4.53107L37.4339 3.72933C37.5708 3.67869 37.6787 3.57079 37.7293 3.43393L38.5311 1.26725Z" style="mix-blend-mode:color"/><circle cx="32.5" cy="67.5" r="1.5" fill="#20df9e" style="mix-blend-mode:color"/><circle cx="4.5" cy="51.5" r="1.5" fill="#f69c00"/><circle cx="1.5" cy="15.5" r="1.5" fill="#f69c00"/></svg>