<svg xmlns="http://www.w3.org/2000/svg" width="36" height="72" fill="none" viewBox="0 0 36 72"><path fill="#20df9e" d="M11.5311 1.26725C11.6922 0.831944 12.3078 0.831944 12.4689 1.26725L13.2707 3.43393C13.3213 3.57078 13.4292 3.67869 13.5661 3.72933L15.7327 4.53107C16.1681 4.69215 16.1681 5.30785 15.7327 5.46893L13.5661 6.27067C13.4292 6.32131 13.3213 6.42921 13.2707 6.56607L12.4689 8.73275C12.3078 9.16806 11.6922 9.16806 11.5311 8.73275L10.7293 6.56607C10.6787 6.42921 10.5708 6.32131 10.4339 6.27067L8.26725 5.46893C7.83194 5.30785 7.83194 4.69215 8.26725 4.53107L10.4339 3.72933C10.5708 3.67869 10.6787 3.57079 10.7293 3.43393L11.5311 1.26725Z" style="mix-blend-mode:color"/><path fill="#fb3" d="M4.53107 63.2673C4.69215 62.8319 5.30785 62.8319 5.46893 63.2673L6.27067 65.4339C6.32131 65.5708 6.42921 65.6787 6.56607 65.7293L8.73275 66.5311C9.16806 66.6922 9.16806 67.3078 8.73275 67.4689L6.56607 68.2707C6.42921 68.3213 6.32131 68.4292 6.27067 68.5661L5.46893 70.7327C5.30785 71.1681 4.69215 71.1681 4.53107 70.7327L3.72933 68.5661C3.67869 68.4292 3.57079 68.3213 3.43393 68.2707L1.26725 67.4689C0.831944 67.3078 0.831944 66.6922 1.26725 66.5311L3.43393 65.7293C3.57078 65.6787 3.67869 65.5708 3.72933 65.4339L4.53107 63.2673Z"/><circle cx="6.5" cy="35.5" r="1.5" fill="#20df9e" style="mix-blend-mode:color"/><circle cx="26.5" cy="50.5" r="1.5" fill="#20df9e" style="mix-blend-mode:color"/><circle cx="34.5" cy="28.5" r="1.5" fill="#f69c00"/></svg>