<svg xmlns="http://www.w3.org/2000/svg" width="24" height="24" fill="none" viewBox="0 0 24 24"><path stroke="#cbd7f9" stroke-linecap="round" stroke-linejoin="round" stroke-width="1.5" d="M12 21C16.9706 21 21 16.9706 21 12C21 7.02944 16.9706 3 12 3C7.02944 3 3 7.02944 3 12C3 16.9706 7.02944 21 12 21Z"/><path stroke="#cbd7f9" stroke-linecap="round" stroke-linejoin="round" stroke-width="1.5" d="M15.75 12C15.75 18 12 21 12 21 12 21 8.25 18 8.25 12 8.25 6 12 3 12 3 12 3 15.75 6 15.75 12ZM3.512 9H20.488M3.512 15H20.488"/></svg>