<svg xmlns="http://www.w3.org/2000/svg" width="24" height="24" fill="none" viewBox="0 0 24 24"><path fill="#fff" fill-opacity="0.9" d="M24 11.2501C24 11.449 23.921 11.6397 23.7803 11.7804C23.6397 11.921 23.4489 12.0001 23.25 12.0001H0.75C0.551088 12.0001 0.360322 11.921 0.21967 11.7804C0.0790176 11.6397 0 11.449 0 11.2501C0 11.0511 0.0790176 10.8604 0.21967 10.7197C0.360322 10.5791 0.551088 10.5001 0.75 10.5001H3.3675L7.82062 4.36787C7.95557 4.1826 8.13118 4.03071 8.33397 3.92387C8.53676 3.81704 8.76134 3.7581 8.99046 3.75158C9.21958 3.74507 9.44714 3.79114 9.65568 3.88628C9.86422 3.98141 10.0482 4.12307 10.1934 4.30037L11.3981 5.69725L11.4169 5.71881C11.4867 5.8065 11.5754 5.87732 11.6763 5.926C11.7773 5.97467 11.8879 5.99995 12 5.99995C12.1121 5.99995 12.2227 5.97467 12.3237 5.926C12.4246 5.87732 12.5133 5.8065 12.5831 5.71881L12.6019 5.69725L13.8066 4.30037C13.9518 4.12307 14.1358 3.98141 14.3443 3.88628C14.5529 3.79114 14.7804 3.74507 15.0095 3.75158C15.2387 3.7581 15.4632 3.81704 15.666 3.92387C15.8688 4.03071 16.0444 4.1826 16.1794 4.36787L20.6325 10.5001H23.25C23.4489 10.5001 23.6397 10.5791 23.7803 10.7197C23.921 10.8604 24 11.0511 24 11.2501ZM16.875 13.5001C16.0449 13.5002 15.2441 13.8063 14.6254 14.3597C14.0068 14.9131 13.6138 15.6751 13.5216 16.5001H10.4784C10.386 15.6759 9.99334 14.9146 9.37539 14.3615C8.75745 13.8084 7.95748 13.5022 7.12815 13.5013C6.29882 13.5004 5.49819 13.8048 4.87904 14.3566C4.25989 14.9084 3.86557 15.6688 3.77133 16.4927C3.67709 17.3167 3.88953 18.1465 4.3681 18.8238C4.84667 19.5012 5.55788 19.9786 6.36599 20.1649C7.17411 20.3513 8.02256 20.2336 8.74944 19.8343C9.47632 19.435 10.0307 18.7821 10.3069 18.0001H13.6931C13.8994 18.5834 14.262 19.0989 14.7414 19.49C15.2209 19.8812 15.7986 20.1331 16.4115 20.2181C17.0243 20.3031 17.6488 20.2179 18.2166 19.972C18.7843 19.7261 19.2736 19.3288 19.6308 18.8236C19.988 18.3184 20.1995 17.7247 20.2421 17.1074C20.2847 16.4901 20.1568 15.873 19.8723 15.3235C19.5879 14.774 19.1578 14.3133 18.6292 13.9917C18.1006 13.6701 17.4938 13.5 16.875 13.5001Z"/></svg>