<svg xmlns="http://www.w3.org/2000/svg" width="24" height="24" fill="none" viewBox="0 0 24 24"><path fill="#fff" fill-opacity="0.9" d="M9.54849 17.9194C9.12568 18.8437 7.71474 21 3.75005 21C3.55114 21 3.36037 20.921 3.21972 20.7803C3.07907 20.6397 3.00005 20.4489 3.00005 20.25C3.00005 16.2853 5.1563 14.8744 6.08068 14.4516C6.1703 14.4107 6.26711 14.3879 6.36555 14.3844C6.464 14.3809 6.56216 14.3969 6.65444 14.4314C6.74672 14.4658 6.8313 14.5182 6.90336 14.5853C6.97543 14.6525 7.03355 14.7332 7.07443 14.8228C7.1153 14.9124 7.13812 15.0092 7.14159 15.1077C7.14505 15.2061 7.12909 15.3043 7.09461 15.3966C7.06014 15.4889 7.00783 15.5734 6.94067 15.6455C6.8735 15.7176 6.7928 15.7757 6.70318 15.8166C6.10036 16.0912 4.77005 16.9753 4.53568 19.4644C7.02474 19.23 7.91068 17.8997 8.18349 17.2969C8.22436 17.2072 8.28249 17.1265 8.35455 17.0594C8.42661 16.9922 8.5112 16.9399 8.60348 16.9054C8.69575 16.871 8.79392 16.855 8.89237 16.8585C8.99081 16.8619 9.08761 16.8847 9.17724 16.9256C9.26687 16.9665 9.34757 17.0246 9.41473 17.0967C9.48189 17.1687 9.5342 17.2533 9.56868 17.3456C9.60315 17.4379 9.61911 17.5361 9.61565 17.6345C9.61218 17.7329 9.58936 17.8297 9.54849 17.9194ZM20.986 4.41937C20.9638 4.05368 20.8085 3.70876 20.5494 3.4497C20.2904 3.19064 19.9454 3.03534 19.5797 3.01312C18.4004 2.94281 15.3863 3.05062 12.886 5.55093L8.25005 10.1906C8.18043 10.2604 8.09775 10.3157 8.00674 10.3535C7.91573 10.3913 7.81817 10.4108 7.71962 10.4109C7.5206 10.4111 7.32966 10.3322 7.1888 10.1916C7.04795 10.051 6.96872 9.86015 6.96854 9.66113C6.96837 9.4621 7.04726 9.27116 7.18786 9.13031L9.67787 6.63937C9.72999 6.58693 9.76546 6.52026 9.7798 6.44772C9.79414 6.37519 9.78671 6.30003 9.75846 6.2317C9.73021 6.16337 9.68238 6.10492 9.621 6.06369C9.55963 6.02247 9.48743 6.00031 9.41349 6H6.97036C6.77278 5.99895 6.57695 6.03721 6.39428 6.11253C6.21161 6.18785 6.04573 6.29874 5.9063 6.43875L2.69068 9.65625C2.49347 9.85332 2.35509 10.1014 2.29107 10.3728C2.22704 10.6441 2.23991 10.928 2.32821 11.1924C2.41652 11.4568 2.57678 11.6914 2.79101 11.8699C3.00523 12.0483 3.26494 12.1635 3.54099 12.2025L7.14755 12.7059L11.2922 16.8506L11.7957 20.4591C11.8344 20.7351 11.9496 20.9949 12.1281 21.2089C12.3067 21.4229 12.5416 21.5828 12.8063 21.6703C12.9605 21.7218 13.1219 21.7481 13.2844 21.7481C13.4812 21.7485 13.6761 21.7099 13.858 21.6346C14.0398 21.5593 14.2049 21.4488 14.3438 21.3094L17.5613 18.0937C17.7009 17.954 17.8115 17.7881 17.8868 17.6055C17.9621 17.4229 18.0006 17.2272 18.0001 17.0297V14.5866C17.9999 14.5124 17.9778 14.44 17.9366 14.3784C17.8953 14.3168 17.8367 14.2689 17.7682 14.2406C17.6996 14.2123 17.6243 14.2049 17.5516 14.2195C17.4789 14.234 17.4121 14.2697 17.3597 14.3222L14.8688 16.8122C14.7959 16.8851 14.7088 16.9422 14.6129 16.98C14.517 17.0178 14.4143 17.0353 14.3113 17.0316C14.2083 17.0279 14.1072 17.0031 14.0142 16.9585C13.9212 16.914 13.8384 16.8508 13.771 16.7728C13.648 16.624 13.5854 16.4343 13.5959 16.2415C13.6063 16.0487 13.6889 15.8669 13.8272 15.7322L18.4463 11.1131C20.9485 8.61187 21.0563 5.59781 20.986 4.4175V4.41937Z"/></svg>