<svg xmlns="http://www.w3.org/2000/svg" width="24" height="24" fill="none" viewBox="0 0 24 24"><path fill="#fff" fill-opacity="0.9" d="M22.9077 8.7L13.1577 20.4591C13.0168 20.6293 12.8398 20.7661 12.6396 20.8596C12.4394 20.9532 12.2209 21.0011 11.9999 21C11.7796 21.0006 11.5618 20.9524 11.3623 20.8588C11.1628 20.7653 10.9864 20.6288 10.8459 20.4591L1.09211 8.7C0.963733 8.54663 0.868072 8.36864 0.811001 8.17695C0.75393 7.98526 0.736653 7.78392 0.760232 7.58531C0.783691 7.38621 0.846996 7.19388 0.946374 7.01976C1.04575 6.84565 1.17917 6.69333 1.33867 6.57188C4.40278 4.24097 8.15002 2.98552 11.9999 3C15.8498 2.98552 19.5971 4.24097 22.6612 6.57188C22.8207 6.69333 22.9541 6.84565 23.0535 7.01976C23.1528 7.19388 23.2161 7.38621 23.2396 7.58531C23.2632 7.78392 23.2459 7.98526 23.1888 8.17695C23.1318 8.36864 23.0361 8.54663 22.9077 8.7Z"/></svg>